<mxfile host="Electron" modified="2023-09-09T22:56:39.348Z" agent="Mozilla/5.0 (Windows NT 10.0; Win64; x64) AppleWebKit/537.36 (KHTML, like Gecko) draw.io/21.6.8 Chrome/114.0.5735.289 Electron/25.5.0 Safari/537.36" etag="eoGUTFKLSxnmipUxYRmz" version="21.6.8" type="device">
  <diagram name="Page-1" id="3e8102d1-ef87-2e61-34e1-82d9a586fe2e">
    <mxGraphModel dx="1562" dy="944" grid="1" gridSize="10" guides="1" tooltips="1" connect="1" arrows="1" fold="1" page="1" pageScale="1" pageWidth="1100" pageHeight="850" background="none" math="0" shadow="0">
      <root>
        <mxCell id="0" />
        <mxCell id="1" parent="0" />
        <mxCell id="70666756c84bb93c-1" value="" style="ellipse;whiteSpace=wrap;html=1;rounded=0;shadow=0;comic=0;strokeWidth=1;fontFamily=Verdana;fontSize=14;strokeColor=none;fillColor=#0069D1;perimeter=ellipsePerimeter;rotatable=1;direction=east;" parent="1" vertex="1">
          <mxGeometry x="520" y="290" width="480" height="450" as="geometry" />
        </mxCell>
        <mxCell id="-D4mI9x5ttiqlvX00Rs8-4" value="" style="endArrow=classic;html=1;rounded=0;sketch=1;hachureGap=4;jiggle=2;curveFitting=1;fontFamily=Architects Daughter;fontSource=https://fonts.googleapis.com/css?family=Architects+Daughter;fontSize=16;strokeWidth=3;strokeColor=#66CC00;" edge="1" parent="1" source="70666756c84bb93c-2" target="-D4mI9x5ttiqlvX00Rs8-12">
          <mxGeometry width="50" height="50" relative="1" as="geometry">
            <mxPoint x="579" y="250" as="sourcePoint" />
            <mxPoint x="740" y="120" as="targetPoint" />
          </mxGeometry>
        </mxCell>
        <mxCell id="-D4mI9x5ttiqlvX00Rs8-5" value="" style="endArrow=classic;html=1;rounded=0;sketch=1;hachureGap=4;jiggle=2;curveFitting=1;fontFamily=Architects Daughter;fontSource=https://fonts.googleapis.com/css?family=Architects+Daughter;fontSize=16;exitX=0.75;exitY=0.05;exitDx=0;exitDy=0;exitPerimeter=0;strokeWidth=3;strokeColor=#66CC00;" edge="1" parent="1" source="70666756c84bb93c-2" target="-D4mI9x5ttiqlvX00Rs8-13">
          <mxGeometry width="50" height="50" relative="1" as="geometry">
            <mxPoint x="610" y="320" as="sourcePoint" />
            <mxPoint x="940" y="180" as="targetPoint" />
          </mxGeometry>
        </mxCell>
        <mxCell id="-D4mI9x5ttiqlvX00Rs8-6" value="" style="endArrow=classic;html=1;rounded=0;sketch=1;hachureGap=4;jiggle=2;curveFitting=1;fontFamily=Architects Daughter;fontSource=https://fonts.googleapis.com/css?family=Architects+Daughter;fontSize=16;exitX=0.234;exitY=0.05;exitDx=0;exitDy=0;exitPerimeter=0;strokeColor=#66CC00;strokeWidth=3;" edge="1" parent="1" source="70666756c84bb93c-2" target="-D4mI9x5ttiqlvX00Rs8-14">
          <mxGeometry width="50" height="50" relative="1" as="geometry">
            <mxPoint x="540" y="320" as="sourcePoint" />
            <mxPoint x="520" y="170" as="targetPoint" />
          </mxGeometry>
        </mxCell>
        <mxCell id="-D4mI9x5ttiqlvX00Rs8-7" value="" style="endArrow=classic;html=1;rounded=0;sketch=1;hachureGap=4;jiggle=2;curveFitting=1;fontFamily=Architects Daughter;fontSource=https://fonts.googleapis.com/css?family=Architects+Daughter;fontSize=16;strokeWidth=2;exitX=0.962;exitY=0.273;exitDx=0;exitDy=0;exitPerimeter=0;" edge="1" parent="1" source="70666756c84bb93c-2" target="-D4mI9x5ttiqlvX00Rs8-15">
          <mxGeometry width="50" height="50" relative="1" as="geometry">
            <mxPoint x="790" y="450" as="sourcePoint" />
            <mxPoint x="1000" y="350" as="targetPoint" />
          </mxGeometry>
        </mxCell>
        <mxCell id="-D4mI9x5ttiqlvX00Rs8-8" value="" style="endArrow=classic;html=1;rounded=0;sketch=1;hachureGap=4;jiggle=2;curveFitting=1;fontFamily=Architects Daughter;fontSource=https://fonts.googleapis.com/css?family=Architects+Daughter;fontSize=16;" edge="1" parent="1" source="70666756c84bb93c-2">
          <mxGeometry width="50" height="50" relative="1" as="geometry">
            <mxPoint x="200" y="100" as="sourcePoint" />
            <mxPoint x="1040" y="515" as="targetPoint" />
          </mxGeometry>
        </mxCell>
        <mxCell id="-D4mI9x5ttiqlvX00Rs8-9" value="" style="endArrow=classic;html=1;rounded=0;sketch=1;hachureGap=4;jiggle=2;curveFitting=1;fontFamily=Architects Daughter;fontSource=https%3A%2F%2Ffonts.googleapis.com%2Fcss%3Ffamily%3DArchitects%2BDaughter;fontSize=16;strokeWidth=2;" edge="1" parent="1" source="70666756c84bb93c-2" target="-D4mI9x5ttiqlvX00Rs8-18">
          <mxGeometry width="50" height="50" relative="1" as="geometry">
            <mxPoint x="140" y="210" as="sourcePoint" />
            <mxPoint x="430" y="350" as="targetPoint" />
          </mxGeometry>
        </mxCell>
        <mxCell id="-D4mI9x5ttiqlvX00Rs8-10" value="" style="endArrow=classic;html=1;rounded=0;sketch=1;hachureGap=4;jiggle=2;curveFitting=1;fontFamily=Architects Daughter;fontSource=https://fonts.googleapis.com/css?family=Architects+Daughter;fontSize=16;exitX=0;exitY=0.5;exitDx=0;exitDy=0;strokeWidth=2;" edge="1" parent="1" source="70666756c84bb93c-2" target="-D4mI9x5ttiqlvX00Rs8-19">
          <mxGeometry width="50" height="50" relative="1" as="geometry">
            <mxPoint x="110" y="350" as="sourcePoint" />
            <mxPoint x="440" y="483" as="targetPoint" />
          </mxGeometry>
        </mxCell>
        <mxCell id="-D4mI9x5ttiqlvX00Rs8-12" value="Front" style="text;html=1;strokeColor=none;fillColor=none;align=center;verticalAlign=middle;whiteSpace=wrap;rounded=0;fontSize=25;fontFamily=Times New Roman;fontStyle=1" vertex="1" parent="1">
          <mxGeometry x="730" y="165" width="60" height="30" as="geometry" />
        </mxCell>
        <mxCell id="-D4mI9x5ttiqlvX00Rs8-13" value="- &lt;b style=&quot;font-size: 25px;&quot;&gt;30&lt;/b&gt;" style="text;html=1;strokeColor=none;fillColor=none;align=center;verticalAlign=middle;whiteSpace=wrap;rounded=0;fontSize=25;fontFamily=Times New Roman;" vertex="1" parent="1">
          <mxGeometry x="890" y="200" width="60" height="30" as="geometry" />
        </mxCell>
        <mxCell id="-D4mI9x5ttiqlvX00Rs8-14" value="&lt;font face=&quot;Times New Roman&quot; style=&quot;font-size: 25px;&quot;&gt;+ 30&lt;/font&gt;" style="text;html=1;strokeColor=none;fillColor=none;align=center;verticalAlign=middle;whiteSpace=wrap;rounded=0;fontSize=25;fontFamily=Architects Daughter;fontStyle=1" vertex="1" parent="1">
          <mxGeometry x="550" y="220" width="60" height="30" as="geometry" />
        </mxCell>
        <mxCell id="-D4mI9x5ttiqlvX00Rs8-15" value="&lt;font style=&quot;font-size: 25px;&quot; face=&quot;Times New Roman&quot;&gt;- 60&lt;/font&gt;" style="text;html=1;strokeColor=none;fillColor=none;align=center;verticalAlign=middle;whiteSpace=wrap;rounded=0;fontSize=20;fontFamily=Architects Daughter;fontStyle=1" vertex="1" parent="1">
          <mxGeometry x="990" y="350" width="60" height="30" as="geometry" />
        </mxCell>
        <mxCell id="-D4mI9x5ttiqlvX00Rs8-16" value="- 90" style="text;html=1;strokeColor=none;fillColor=none;align=center;verticalAlign=middle;whiteSpace=wrap;rounded=0;fontSize=25;fontFamily=Times New Roman;fontStyle=1" vertex="1" parent="1">
          <mxGeometry x="1040" y="500" width="60" height="30" as="geometry" />
        </mxCell>
        <mxCell id="-D4mI9x5ttiqlvX00Rs8-18" value="+ 60" style="text;html=1;strokeColor=none;fillColor=none;align=center;verticalAlign=middle;whiteSpace=wrap;rounded=0;fontSize=24;fontFamily=Times New Roman;fontStyle=1" vertex="1" parent="1">
          <mxGeometry x="450" y="370" width="60" height="30" as="geometry" />
        </mxCell>
        <mxCell id="-D4mI9x5ttiqlvX00Rs8-19" value="+90" style="text;html=1;strokeColor=none;fillColor=none;align=center;verticalAlign=middle;whiteSpace=wrap;rounded=0;fontSize=25;fontFamily=Times New Roman;fontStyle=1" vertex="1" parent="1">
          <mxGeometry x="430" y="500" width="60" height="30" as="geometry" />
        </mxCell>
        <mxCell id="-D4mI9x5ttiqlvX00Rs8-22" value="" style="shape=or;whiteSpace=wrap;html=1;direction=south;fillColor=#FF3333;strokeColor=#6c8ebf;sketch=1;hachureGap=4;jiggle=2;curveFitting=1;fontFamily=Architects Daughter;fontSource=https%3A%2F%2Ffonts.googleapis.com%2Fcss%3Ffamily%3DArchitects%2BDaughter;fontSize=20;fillStyle=solid;container=0;cloneable=1;sketchStyle=comic;" vertex="1" parent="1">
          <mxGeometry x="520" y="510" width="480" height="240" as="geometry" />
        </mxCell>
        <mxCell id="70666756c84bb93c-2" value="lidar" style="ellipse;whiteSpace=wrap;html=1;rounded=0;shadow=0;comic=0;strokeWidth=1;fontFamily=Verdana;fontSize=22;strokeColor=none;fillColor=#ffffff;fontColor=#0069D1;fontStyle=1" parent="1" vertex="1">
          <mxGeometry x="704" y="457.5" width="112" height="115" as="geometry" />
        </mxCell>
        <mxCell id="-D4mI9x5ttiqlvX00Rs8-23" value="" style="endArrow=classic;html=1;rounded=0;sketch=1;hachureGap=4;jiggle=2;curveFitting=1;fontFamily=Architects Daughter;fontSource=https://fonts.googleapis.com/css?family=Architects+Daughter;fontSize=16;exitX=0.5;exitY=1;exitDx=0;exitDy=0;strokeWidth=2;sketchStyle=rough;" edge="1" parent="1" source="70666756c84bb93c-2" target="-D4mI9x5ttiqlvX00Rs8-33">
          <mxGeometry width="50" height="50" relative="1" as="geometry">
            <mxPoint x="220" y="660" as="sourcePoint" />
            <mxPoint x="750" y="810" as="targetPoint" />
          </mxGeometry>
        </mxCell>
        <mxCell id="-D4mI9x5ttiqlvX00Rs8-25" value="" style="endArrow=classic;html=1;rounded=0;sketch=1;hachureGap=4;jiggle=2;curveFitting=1;fontFamily=Architects Daughter;fontSource=https://fonts.googleapis.com/css?family=Architects+Daughter;fontSize=16;exitX=0.154;exitY=0.596;exitDx=0;exitDy=0;exitPerimeter=0;strokeWidth=2;sketchStyle=rough;" edge="1" parent="1" source="-D4mI9x5ttiqlvX00Rs8-22" target="-D4mI9x5ttiqlvX00Rs8-29">
          <mxGeometry width="50" height="50" relative="1" as="geometry">
            <mxPoint x="140" y="210" as="sourcePoint" />
            <mxPoint x="460" y="650" as="targetPoint" />
          </mxGeometry>
        </mxCell>
        <mxCell id="-D4mI9x5ttiqlvX00Rs8-26" value="" style="endArrow=classic;html=1;rounded=0;sketch=1;hachureGap=4;jiggle=2;curveFitting=1;fontFamily=Architects Daughter;fontSource=https://fonts.googleapis.com/css?family=Architects+Daughter;fontSize=16;exitX=1;exitY=1;exitDx=0;exitDy=0;strokeWidth=2;" edge="1" parent="1" source="70666756c84bb93c-2" target="-D4mI9x5ttiqlvX00Rs8-31">
          <mxGeometry width="50" height="50" relative="1" as="geometry">
            <mxPoint x="150" y="220" as="sourcePoint" />
            <mxPoint x="1050" y="660" as="targetPoint" />
          </mxGeometry>
        </mxCell>
        <mxCell id="-D4mI9x5ttiqlvX00Rs8-28" value="" style="endArrow=classic;html=1;rounded=0;sketch=1;hachureGap=4;jiggle=2;curveFitting=1;fontFamily=Architects Daughter;fontSource=https://fonts.googleapis.com/css?family=Architects+Daughter;fontSize=16;exitX=0.733;exitY=0.95;exitDx=0;exitDy=0;exitPerimeter=0;" edge="1" parent="1" source="70666756c84bb93c-2" target="-D4mI9x5ttiqlvX00Rs8-32">
          <mxGeometry width="50" height="50" relative="1" as="geometry">
            <mxPoint x="260" y="460" as="sourcePoint" />
            <mxPoint x="940" y="780" as="targetPoint" />
          </mxGeometry>
        </mxCell>
        <mxCell id="-D4mI9x5ttiqlvX00Rs8-29" value="+ 120" style="text;html=1;strokeColor=none;fillColor=none;align=center;verticalAlign=middle;whiteSpace=wrap;rounded=0;fontSize=25;fontFamily=Times New Roman;fontStyle=1" vertex="1" parent="1">
          <mxGeometry x="450" y="630" width="60" height="70" as="geometry" />
        </mxCell>
        <mxCell id="-D4mI9x5ttiqlvX00Rs8-30" value="+ 150" style="text;html=1;strokeColor=none;fillColor=none;align=center;verticalAlign=middle;whiteSpace=wrap;rounded=0;fontSize=25;fontFamily=Times New Roman;fontStyle=1" vertex="1" parent="1">
          <mxGeometry x="570" y="740" width="60" height="30" as="geometry" />
        </mxCell>
        <mxCell id="-D4mI9x5ttiqlvX00Rs8-3" value="" style="endArrow=classic;html=1;rounded=0;sketch=1;hachureGap=4;jiggle=2;curveFitting=1;fontFamily=Architects Daughter;fontSource=https%3A%2F%2Ffonts.googleapis.com%2Fcss%3Ffamily%3DArchitects%2BDaughter;fontSize=16;exitX=0.276;exitY=0.969;exitDx=0;exitDy=0;exitPerimeter=0;" edge="1" parent="1" source="70666756c84bb93c-2" target="-D4mI9x5ttiqlvX00Rs8-30">
          <mxGeometry width="50" height="50" relative="1" as="geometry">
            <mxPoint x="130" y="200" as="sourcePoint" />
            <mxPoint x="590" y="760" as="targetPoint" />
          </mxGeometry>
        </mxCell>
        <mxCell id="-D4mI9x5ttiqlvX00Rs8-31" value="- 120" style="text;html=1;strokeColor=none;fillColor=none;align=center;verticalAlign=middle;whiteSpace=wrap;rounded=0;fontSize=25;fontFamily=Times New Roman;fontStyle=1" vertex="1" parent="1">
          <mxGeometry x="1010" y="640" width="60" height="30" as="geometry" />
        </mxCell>
        <mxCell id="-D4mI9x5ttiqlvX00Rs8-32" value="- 150" style="text;html=1;strokeColor=none;fillColor=none;align=center;verticalAlign=middle;whiteSpace=wrap;rounded=0;fontSize=25;fontFamily=Times New Roman;fontStyle=1" vertex="1" parent="1">
          <mxGeometry x="890" y="740" width="60" height="30" as="geometry" />
        </mxCell>
        <mxCell id="-D4mI9x5ttiqlvX00Rs8-33" value="Back" style="text;html=1;strokeColor=none;fillColor=none;align=center;verticalAlign=middle;whiteSpace=wrap;rounded=0;fontSize=25;fontFamily=Times New Roman;fontStyle=1" vertex="1" parent="1">
          <mxGeometry x="730" y="780" width="60" height="30" as="geometry" />
        </mxCell>
        <mxCell id="-D4mI9x5ttiqlvX00Rs8-53" value="&lt;ul style=&quot;&quot;&gt;&lt;li style=&quot;font-size: 25px;&quot;&gt;&lt;font style=&quot;font-size: 25px;&quot; face=&quot;Times New Roman&quot;&gt;Scan surroundings with LIDAR&amp;nbsp;divide it into 12 segments of 30 degrees each&lt;/font&gt;&lt;/li&gt;&lt;li style=&quot;font-size: 25px;&quot;&gt;&lt;font style=&quot;font-size: 25px;&quot; face=&quot;Times New Roman&quot;&gt;Find widest open area front 3 segment(-30 to +30)&lt;/font&gt;&lt;br&gt;&lt;/li&gt;&lt;li style=&quot;font-size: 25px;&quot;&gt;&lt;font style=&quot;font-size: 25px;&quot; face=&quot;Times New Roman&quot;&gt;If too close to obstacle&lt;br&gt;&lt;/font&gt;&lt;/li&gt;&lt;ul style=&quot;&quot;&gt;&lt;li style=&quot;font-size: 25px;&quot;&gt;&lt;font style=&quot;font-size: 25px;&quot; face=&quot;Times New Roman&quot;&gt;Find widest half-circle segment (-90 to +90)&lt;/font&gt;&lt;/li&gt;&lt;li style=&quot;font-size: 25px;&quot;&gt;&lt;font style=&quot;font-size: 25px;&quot; face=&quot;Times New Roman&quot;&gt;If still too close&lt;/font&gt;&lt;/li&gt;&lt;ul style=&quot;font-size: 25px;&quot;&gt;&lt;li&gt;&lt;font style=&quot;font-size: 25px;&quot; face=&quot;Times New Roman&quot;&gt;Find widest full-circle segment (-180 to + 180)&lt;/font&gt;&lt;/li&gt;&lt;li&gt;&lt;font style=&quot;font-size: 25px;&quot; face=&quot;Times New Roman&quot;&gt;Turn robot to face segment&lt;/font&gt;&lt;/li&gt;&lt;/ul&gt;&lt;/ul&gt;&lt;li&gt;&lt;font style=&quot;font-size: 25px;&quot; face=&quot;Times New Roman&quot;&gt;Publish a ROS2 Twist message to move the robot towards the open area&lt;/font&gt;&lt;br&gt;&lt;/li&gt;&lt;/ul&gt;" style="text;strokeColor=none;fillColor=none;html=1;whiteSpace=wrap;verticalAlign=middle;overflow=hidden;fontSize=20;fontFamily=Architects Daughter;" vertex="1" parent="1">
          <mxGeometry x="20" y="160" width="390" height="600" as="geometry" />
        </mxCell>
        <mxCell id="-D4mI9x5ttiqlvX00Rs8-55" value="&lt;h1&gt;&lt;font style=&quot;&quot; face=&quot;Times New Roman&quot;&gt;&lt;font style=&quot;font-size: 30px;&quot;&gt;Design Diagram for Self-Driving Robot with Lidar-Assisted Object Avoidance&lt;/font&gt;&lt;/font&gt;&lt;/h1&gt;" style="text;html=1;strokeColor=none;fillColor=none;spacing=5;spacingTop=-20;whiteSpace=wrap;overflow=hidden;rounded=0;fontSize=20;fontFamily=Architects Daughter;" vertex="1" parent="1">
          <mxGeometry x="40" y="30" width="1010" height="100" as="geometry" />
        </mxCell>
      </root>
    </mxGraphModel>
  </diagram>
</mxfile>
